<svg id="Layer_1" data-name="Layer 1" xmlns="http://www.w3.org/2000/svg" viewBox="0 0 108.02 15.34"><defs><style>.cls-1{fill:#2563eb;}</style></defs><path class="cls-1" d="M233.86,402.34h3.36v9.4c0,4.21-2,5.7-5.28,5.7a8.45,8.45,0,0,1-2.46-.36l.37-2.7a6,6,0,0,0,1.72.26c1.41,0,2.29-.63,2.29-2.94Z" transform="translate(-229.48 -402.1)"/><rect class="cls-1" x="10.55" y="0.24" width="3.36" height="14.86"/><path class="cls-1" d="M256.32,413a3.74,3.74,0,0,0-2-2.76v-.07a3.94,3.94,0,0,0,2.62-3.65,3.76,3.76,0,0,0-1.37-3.12c-1.06-.84-2.61-1.18-4.81-1.18a28.58,28.58,0,0,0-4.46.32v14.65h3.32v-5.83h1c1.39,0,2,.52,2.42,2.37a19.83,19.83,0,0,0,1,3.46h3.44A40.82,40.82,0,0,1,256.32,413ZM251,408.93h-1.32v-4.09a7.1,7.1,0,0,1,1.52-.11c1.53,0,2.46.7,2.46,2.06S252.62,408.93,251,408.93Z" transform="translate(-229.48 -402.1)"/><path class="cls-1" d="M267.43,402.34H263l-4.54,14.85H262l1-3.81h4.27l1.14,3.81h3.62Zm-3.93,8.54.89-3.15c.24-.87.46-2,.68-2.87h.05c.23.87.49,2,.75,2.86l.92,3.16Z" transform="translate(-229.48 -402.1)"/><path class="cls-1" d="M284.38,416.79a9.84,9.84,0,0,1-3.8.64c-5.14,0-7.79-3.22-7.79-7.45,0-5.07,3.63-7.87,8.11-7.87a8.54,8.54,0,0,1,3.66.66l-.69,2.65a7.1,7.1,0,0,0-2.82-.55c-2.65,0-4.73,1.61-4.73,4.91,0,3,1.76,4.85,4.75,4.85a8.06,8.06,0,0,0,2.81-.48Z" transform="translate(-229.48 -402.1)"/><polygon class="cls-1" points="57.12 0.24 60.48 0.24 60.48 12.28 66.39 12.28 66.39 15.1 57.12 15.1 57.12 0.24"/><path class="cls-1" d="M303.56,402.1c-4.38,0-7.24,3.33-7.24,7.77,0,4.24,2.6,7.57,7,7.57s7.29-2.95,7.29-7.82C310.61,405.51,308.11,402.1,303.56,402.1Zm-.07,12.67c-2.24,0-3.61-2-3.61-5s1.32-5,3.6-5,3.58,2.29,3.58,5C307.06,412.62,305.76,414.77,303.49,414.77Z" transform="translate(-229.48 -402.1)"/><path class="cls-1" d="M312.82,417.2V402.34h3.92l3.08,5.45a43.17,43.17,0,0,1,2.43,5.09h.05a60.73,60.73,0,0,1-.27-6.21v-4.33h3.09V417.2H321.6l-3.19-5.73a55.4,55.4,0,0,1-2.58-5.24h-.07c.1,2,.15,4.07.15,6.5v4.47Z" transform="translate(-229.48 -402.1)"/><polygon class="cls-1" points="107.38 8.81 101.91 8.81 101.91 12.35 108.02 12.35 108.02 15.1 98.55 15.1 98.55 0.24 107.7 0.24 107.7 2.99 101.91 2.99 101.91 6.09 107.38 6.09 107.38 8.81"/></svg>