<svg id="Layer_1" data-name="Layer 1" xmlns="http://www.w3.org/2000/svg" viewBox="0 0 237.11 248.1"><defs><style>.cls-1{fill:#3a5faa;}.cls-2{fill:#4f75b3;}</style></defs><path class="cls-1" d="M315.44,235.62V353.17q0,31.41-13.46,44.86-12.57,12.59-31.4,12.56A41.45,41.45,0,0,1,240.07,398q-13.45-13.45-13.46-44.86V340.6h20.64v17q0,20.66,7.17,27.82a20.75,20.75,0,0,0,15.26,6.28q10.77,0,17.05-6.28,8.07-8.09,8.07-31.41V256.32H226.4V235.69h68.4v-.07Z" transform="translate(-186.96 -235.62)"/><path class="cls-2" d="M383.62,256.15V373.69q0,31.43-13.46,44.87-12.57,12.57-31.4,12.56a41.5,41.5,0,0,1-30.51-12.56q-13.46-13.47-13.46-44.87V361.13h20.64v17.05q0,20.65,7.18,27.81a20.71,20.71,0,0,0,15.25,6.29q10.77,0,17.05-6.29,8.07-8.07,8.08-31.4V276.85h-68.4V256.22H363v-.07Z" transform="translate(-186.96 -235.62)"/><rect class="cls-2" x="39.45" y="28.22" width="20.64" height="69.96"/><path class="cls-1" d="M198.39,437.6h6.91V467c0,12.52-5.05,16.69-12.54,16.69a16,16,0,0,1-5.8-1.08l.85-6.69a11.48,11.48,0,0,0,4.26.82c3.93,0,6.32-2.13,6.32-10Z" transform="translate(-186.96 -235.62)"/><path class="cls-1" d="M222.73,441c0,2.48-1.49,4.47-3.94,4.47-2.28,0-3.79-2-3.78-4.47s1.55-4.48,3.87-4.48S222.71,438.49,222.73,441Z" transform="translate(-186.96 -235.62)"/><rect class="cls-1" x="28.45" y="214.58" width="6.91" height="32.77"/><path class="cls-1" d="M232.57,460.74c0-4.39-.07-7.62-.22-10.54h6l.26,6.23h.19c1.35-4.61,4.53-7,7.48-7a5.47,5.47,0,0,1,1.62.18v7.81a7.79,7.79,0,0,0-2-.24c-3.29,0-5.57,2.52-6.19,6.27a17.34,17.34,0,0,0-.17,2.5v17h-6.92Z" transform="translate(-186.96 -235.62)"/><path class="cls-1" d="M276,475.08V463.27c0-7.18-2.5-13.81-11.27-13.81a17.18,17.18,0,0,0-9.89,2.92l1.36,5.37a12.87,12.87,0,0,1,7.35-2.45c4.84,0,5.55,3.56,5.55,5.71v.56c-10.06-.06-16.21,4.13-16.21,12.4,0,5,3.08,9.74,8.62,9.74a9.41,9.41,0,0,0,8-4.38h.17l.48,3.65h6.22A60.94,60.94,0,0,1,276,475.08Zm-6.72-3.62a7.78,7.78,0,0,1-.19,1.79,5.81,5.81,0,0,1-5.41,4.55c-2.17,0-3.94-1.52-3.94-4.72,0-5,4.67-6.23,9.54-6.15Z" transform="translate(-186.96 -235.62)"/><path class="cls-1" d="M306.19,482a16.78,16.78,0,0,1-7.71,1.69c-8.56,0-14.08-6.59-14.08-16.76,0-9.81,5.59-17.44,15.19-17.44a15.25,15.25,0,0,1,6.67,1.5L305,457.21a10.07,10.07,0,0,0-5.23-1.28c-5.26,0-8.38,4.62-8.36,10.62,0,6.73,3.68,10.58,8.39,10.58a11.71,11.71,0,0,0,5.42-1.29Z" transform="translate(-186.96 -235.62)"/><rect class="cls-1" x="127.18" y="199.56" width="6.91" height="47.79"/><path class="cls-1" d="M343.74,449.46c-8.22,0-14.13,6.63-14.13,17.38,0,10.49,6,16.87,13.66,16.87,7,0,14-5.39,14-17.44C357.31,456.34,351.88,449.46,343.74,449.46Zm-.23,28.23c-4.18,0-6.8-4.76-6.8-11.07,0-5.46,2-11.13,6.84-11.13s6.66,5.87,6.66,11C350.21,473.11,347.46,477.69,343.51,477.69Z" transform="translate(-186.96 -235.62)"/><path class="cls-1" d="M365.8,460c0-3.79-.1-6.91-.22-9.75h6l.34,4.92h.16a9.78,9.78,0,0,1,8.71-5.66c4.76,0,9.71,3.68,9.71,14.05V483h-6.91v-18.5c0-4.7-1.44-8.28-5.22-8.28-2.75,0-4.65,2.33-5.37,4.86a9.76,9.76,0,0,0-.32,2.63V483H365.8Z" transform="translate(-186.96 -235.62)"/><path class="cls-1" d="M424.07,465.41c0-7.19-2.89-16-11.78-16s-13.35,8.56-13.35,17.61c0,10,5.19,16.61,14.07,16.61a21.29,21.29,0,0,0,9.54-2.07l-1-5.71a17.77,17.77,0,0,1-7.54,1.52c-4.43,0-8.25-2.6-8.43-8.54h18.26A20.69,20.69,0,0,0,424.07,465.41Zm-18.52-2.31c.3-3.35,2.07-8,6.32-8,4.62,0,5.73,5,5.7,8Z" transform="translate(-186.96 -235.62)"/></svg>