<svg id="Layer_1" data-name="Layer 1" xmlns="http://www.w3.org/2000/svg" viewBox="0 0 3497.14 2592"><defs><style>.cls-1{fill:#0553a0;}.cls-2{fill:#4583dd;}</style></defs><path d="M353.39,2230.65V1670.07H501.85l117,205.63C652.6,1934.46,685.55,2004.64,711,2068l2.17-.26c-7.83-74.13-10.27-149.48-10.27-234.2V1670.07h117v560.58H686.34L565.53,2014.76c-33.61-60.47-70.59-132.31-97.91-198l-2.8.27c3.94,74.27,5.56,153.59,5.56,245.15v168.5Z"/><path d="M1057.77,1670.07v560.58H930.34V1670.07Z"/><path d="M1278.61,1670.07H1406V2024.6c0,159.13-76.88,215.2-200.56,215.2-29.67,0-68.13-4.64-93.3-13.39l14.3-102a226,226,0,0,0,65,9.75c53.46,0,87.14-23.83,87.14-111Z"/><path d="M1639.73,1670.07v560.58H1512.3V1670.07Z"/><path d="M1750.61,1677.77c40.92-6.87,101.57-12.06,169.35-12.06,83.6,0,142.17,12.68,182.4,44.41,33.65,26.57,52.15,66,52.15,117.52,0,71-51,120.48-99.49,137.77v2.64c39.1,15.7,61.09,52.88,75.3,104.39,17.42,63.42,34.43,136.5,45.48,158.21H2045.35c-8.67-16.22-22.73-61.28-38.77-130.66-15.7-70.07-39.35-88.79-91.81-89.44h-37.89v220.1H1750.61Zm126.27,241.07h49.91c63.22,0,101-32,101-80.78,0-51.31-35.35-77.56-93.57-77.89-30.51,0-48.39,2-57.37,4.25Z"/><path d="M2384.58,2086.72l-39.77,143.93H2213l172-560.58h166.77l175.46,560.58H2590l-43.34-143.93Zm143.17-94.44-35.1-119.12c-9.68-33.14-19.67-75.16-28.32-108h-1.76c-8.27,33-16.77,75.53-25.81,108.09l-33.7,119Z"/><path d="M2802.47,1670.07H2929.9v454.34h224.24v106.24H2802.47Z"/><path class="cls-1" d="M1206.9,1130.61c.64,8.53,1.5,17.06,2.36,25.59l-5.15.64C1144.94,1009.06,1068,845.28,989.28,708.37L716.35,228.56H369.87V1536.43H642.81v-393c0-213.68-3.65-398.78-12.87-572.16l6.43-.64c63.9,153.33,150.09,320.95,228.56,462.12l281.94,503.7h311.31V1130.61Z"/><path class="cls-2" d="M1463.34,220V1251.74c-21.87,83-58.74,146.08-108.91,192.35-93,85.94-214.41,94.26-335.33,105.35a978.22,978.22,0,0,1-312.38-22.39q-1.61-125.07-3.43-250.15c122.64,33.27,221.05,32,283.22,26,90.27-8.53,120.07-27.94,132.07-37.75,45.46-36.89,71.19-104.92,71.19-221.35V498.11H934L773.83,226h415.94v-6Z"/></svg>